<svg width="633" height="253" viewBox="0 0 633 253" fill="none" xmlns="http://www.w3.org/2000/svg">
<path fill-rule="evenodd" clip-rule="evenodd" d="M630.5 10.4C629.167 8.66665 626.633 7.53331 622.9 6.99998C614.429 5.82709 611.133 5.80059 552.984 5.33312C492.146 4.84404 371.266 3.87227 121.6 0.599976C88.9333 0.599976 64.0667 4.33331 47 11.8C30.0667 19.2667 21.6 31.2666 21.6 47.8C21.6 52.8666 22.3333 57.4666 23.8 61.6C25.2667 65.7333 26.8 68.4666 28.4 69.8C30.9333 71.9333 34 73 37.6 73C40.9333 73 43.9333 72.1333 46.6 70.4C49.2667 68.5333 50.6 66.4 50.6 64C50.6 62.8 50.2 61.6 49.4 60.4C46.7333 56.2666 45.4 51.9333 45.4 47.4C45.4 40.8666 48.3333 35.9333 54.2 32.6C60.0667 29.2666 70.2 26.9333 84.6 25.6C82.7333 46.5333 81 64.3333 79.4 79C75.8 79.1333 72.1333 79.2 68.4 79.2C64.2667 79.2 61.1333 80.3333 59 82.6C56.8667 84.7333 55.8 87.8666 55.8 92C55.8 95.2 56.8667 97.6666 59 99.4C61.2667 101.133 63.9333 102 67 102H78.6C78.6 102 73.325 175.5 71.4 193C69.475 210.5 66.6 216.133 61.4 222.4C56.3333 228.533 50 231.6 42.4 231.6C32.9333 231.6 25 227.4 18.6 219C16.2 215.933 14.2 213.867 12.6 212.8C11.1333 211.733 9.6 211.2 8 211.2C5.73333 211.2 3.8 212.4 2.2 214.8C0.733333 217.2 0 220 0 223.2C0 226.4 0.733333 229.133 2.2 231.4C5.8 237 11.4 241.8 19 245.8C26.6 249.667 34.9333 251.6 44 251.6C60 251.6 72.5333 246.933 81.6 237.6C90.8 228.267 98.4 217.7 99.6 190.6C100.8 163.5 106.8 102 106.8 102H142.104C139.501 113.676 138.2 125.809 138.2 138.4C138.2 150.133 139.2 158.667 141.2 164C143.333 169.333 146.933 172 152 172C156.133 172 159.133 170.933 161 168.8C163 166.533 164.733 162.267 166.2 156C168.2 147.867 170.8 140.133 174 132.8C177.2 125.467 180.4 119.6 183.6 115.2C186.933 110.667 189.6 108.4 191.6 108.4C193.067 108.4 193.8 109.467 193.8 111.6C193.8 112.533 193.667 114.333 193.4 117C193 119 192.8 121 192.8 123C192.8 129.133 194.6 134 198.2 137.6C201.933 141.2 207.333 143 214.4 143C219.409 143 224.152 141.933 228.628 139.799C228.799 149.285 230.729 156.952 234.416 162.8C238.416 168.933 244.749 172 253.416 172C264.882 172 277.216 163.933 290.416 147.8C291.08 147.03 291.658 146.178 292.148 145.243C292.855 144.37 293.551 143.489 294.234 142.6C298.368 137.4 302.501 130.867 306.634 123C308.501 125.133 310.501 127.667 312.634 130.6C314.768 133.4 316.501 136.333 317.834 139.4C319.301 142.467 320.101 145.733 320.234 149.2L314.834 148.6C312.568 148.2 310.568 148 308.834 148C303.901 148 300.168 149.267 297.634 151.8C295.101 154.333 293.834 157.333 293.834 160.8C293.834 164.8 295.634 168.4 299.234 171.6C302.968 174.8 308.301 176.4 315.234 176.4C322.568 176.4 328.901 174.133 334.234 169.6C343.168 169.333 350.634 167.733 356.634 164.8C359.485 163.375 362.393 161.388 365.358 158.84C366.135 160.234 367.011 161.554 367.986 162.8C372.919 168.933 379.053 172 386.386 172C393.719 172 399.653 168.533 404.186 161.6C400.719 176.8 398.986 192.2 398.986 207.8C398.986 220.333 400.919 230.933 404.786 239.6C408.786 248.4 414.586 252.8 422.186 252.8C433.386 252.8 441.586 245.333 446.786 230.4C452.119 215.467 454.786 197.933 454.786 177.8C454.786 170.2 454.519 162.6 453.986 155C456.519 155 458.453 155.067 459.786 155.2L465.054 155.342C465.979 158.437 467.29 161.256 468.986 163.8C472.853 169.267 477.786 172 483.786 172C488.986 172 493.853 169.6 498.386 164.8C502.919 159.867 506.319 152.867 508.586 143.8C508.586 152.733 510.053 159.667 512.986 164.6C516.053 169.533 520.786 172 527.186 172C535.586 172 543.053 169.733 549.586 165.2C553.254 162.705 556.781 159.827 560.167 156.566C561.139 157.983 562.206 159.327 563.369 160.6C570.435 168.2 580.369 172 593.169 172C601.569 172 608.769 170.4 614.769 167.2C620.902 164 625.835 159.533 629.569 153.8C631.835 150.333 632.969 146.2 632.969 141.4C632.969 138.6 632.435 136.4 631.369 134.8C630.435 133.2 629.102 132.4 627.369 132.4C625.369 132.4 623.569 133.4 621.969 135.4C617.302 141.4 613.169 145.667 609.569 148.2C606.102 150.733 601.635 152 596.169 152C588.569 152 583.169 148.933 579.969 142.8C595.835 138.933 607.035 133.733 613.569 127.2C620.235 120.533 623.569 112.6 623.569 103.4C623.569 95.5333 621.235 89.3333 616.569 84.8C611.902 80.1333 605.702 77.8 597.969 77.8C589.302 77.8 581.502 80.1333 574.569 84.8C567.769 89.4667 562.435 95.8 558.569 103.8C554.702 111.667 552.769 120.2 552.769 129.4C552.769 132.408 552.956 135.274 553.33 137.999C550.595 140.989 548.214 143.39 546.186 145.2C542.586 148.4 539.453 150 536.786 150C535.053 150 533.653 149.333 532.586 148C531.519 146.533 530.986 144.533 530.986 142C530.986 138 532.853 127.467 536.586 110.4C539.919 95.4667 541.586 86.3333 541.586 83C541.586 81 540.986 79.6667 539.786 79C538.586 78.2 536.453 77.8 533.386 77.8C528.986 77.8 525.653 78.6667 523.386 80.4C521.253 82.1333 519.653 85 518.586 89C515.386 100.867 512.053 110.867 508.586 119C505.253 127.133 502.053 133.2 498.986 137.2C496.053 141.2 493.586 143.2 491.586 143.2C490.119 143.2 489.053 142.667 488.386 141.6C487.719 140.4 487.386 138.4 487.386 135.6C487.386 130.933 488.719 121.6 491.386 107.6C492.186 103.6 493.253 99.1333 494.586 94.2C496.053 88.0667 496.786 84.4667 496.786 83.4C496.786 81.5333 496.186 80.1333 494.986 79.2C493.919 78.2667 491.919 77.8 488.986 77.8C483.786 77.8 479.986 78.6667 477.586 80.4C475.186 82.1333 473.319 85 471.986 89C468.919 98.3333 466.719 107.2 465.386 115.6C464.498 121.107 463.905 126.998 463.609 133.274C455.16 133.625 450.685 133.8 450.186 133.8C446.186 133.8 443.053 135.267 440.786 138.2C438.653 141.133 437.586 144.8 437.586 149.2C437.586 150.667 437.653 151.733 437.786 152.4C438.719 160.267 439.186 169.267 439.186 179.4C439.186 187.933 438.653 196 437.586 203.6C436.519 211.2 435.186 217.267 433.586 221.8C432.119 226.333 430.719 228.6 429.386 228.6C427.786 228.6 426.453 226.4 425.386 222C424.453 217.733 423.986 212.533 423.986 206.4C423.986 190 426.119 171.133 430.386 149.8C431.853 142.333 433.786 134.067 436.186 125C438.719 115.933 441.053 107.667 443.186 100.2C443.719 98.3333 444.786 94.5333 446.386 88.8C448.119 82.9333 448.986 79.2 448.986 77.6C449.119 75.0667 448.386 73.1333 446.786 71.8C445.319 70.4667 442.319 69.8 437.786 69.8C433.519 69.8 430.186 70.5333 427.786 72C425.386 73.4667 423.586 76.3333 422.386 80.6C420.653 78.4667 418.186 77.4 414.986 77.4C405.519 77.4 396.586 80.3333 388.186 86.2C379.919 91.9333 373.253 99.5333 368.186 109C363.387 118.209 360.922 127.924 360.791 138.142C355.199 143.898 350.146 147.651 345.634 149.4C345.901 147 346.034 145.133 346.034 143.8C346.034 139.133 344.901 134.867 342.634 131C340.501 127 337.301 122.2 333.034 116.6C330.101 113 327.901 110 326.434 107.6C325.101 105.2 324.434 103 324.434 101C324.434 97.6667 325.634 93.6 328.034 88.8C328.968 87.0667 329.701 85.3333 330.234 83.6C330.768 81.8667 331.034 80.6 331.034 79.8C331.034 78.3333 330.301 77.2667 328.834 76.6C327.368 75.9333 324.768 75.6 321.034 75.6C313.034 75.6 307.768 78.5333 305.234 84.4C302.301 91.3333 299.301 98.0667 296.234 104.6C293.168 111 290.501 116.133 288.234 120C284.627 125.668 279.34 132.83 272.372 141.486C271.079 142.831 269.893 144.002 268.816 145C265.216 148.333 262.216 150 259.816 150C257.282 150 255.482 148.933 254.416 146.8C253.349 144.667 252.816 141.6 252.816 137.6C252.816 132.4 254.416 122.467 257.616 107.8C260.149 95.6667 261.416 87.9333 261.416 84.6C261.416 80.0667 258.016 77.8 251.216 77.8C246.816 77.8 243.616 78.6 241.616 80.2C239.616 81.8 238.016 84.7333 236.816 89C234.416 97.1333 232.416 105.933 230.816 115.4C230.747 115.835 230.68 116.267 230.615 116.694C227.294 119.165 224.423 120.4 222 120.4C218.667 120.4 217 118.067 217 113.4C217 112.067 217.533 108.733 218.6 103.4C219.8 96.7333 220.4 92.5333 220.4 90.8C220.4 82.1333 216.067 77.8 207.4 77.8C203 77.8 198.133 79.3333 192.8 82.4C187.6 85.4667 182.267 90.6 176.8 97.8C171.333 105 166.4 114.333 162 125.8C162.533 119.933 163.2 115 164 111C164.8 107 165.867 102.333 167.2 97C169.2 89.5333 170.2 84.7333 170.2 82.6C170.2 80.7333 169.667 79.4667 168.6 78.8C167.994 78.4212 167.129 78.15 166.007 77.9864C164.122 77.6569 161.515 77.7089 158.891 77.7611C157.918 77.7805 156.942 77.8 156 77.8L107.6 78.4C109.333 62.1333 111 44.1333 112.6 24.4H121.6C130.133 24.4 579.567 27.4 587.3 27.8C595.167 28.2 603.033 28.7333 610.9 29.4L617.9 30C627.767 30.6666 632.7 26.4 632.7 17.2C632.7 14.4 631.967 12.1333 630.5 10.4ZM403.186 146.2C400.386 149.933 397.453 151.8 394.386 151.8C391.719 151.8 389.586 150.733 387.986 148.6C386.519 146.333 385.786 143.133 385.786 139C385.786 131.667 387.186 124.733 389.986 118.2C392.919 111.533 396.786 106.2 401.586 102.2C406.519 98.2 411.919 96.1333 417.786 96L409.186 132.4C407.986 137.733 405.986 142.333 403.186 146.2ZM581.969 106C585.435 100.267 589.635 97.4 594.569 97.4C596.969 97.4 598.835 98.2 600.169 99.8C601.635 101.267 602.369 103.267 602.369 105.8C602.369 110.733 600.102 115.067 595.569 118.8C591.035 122.533 584.835 125.333 576.969 127.2V126.8C576.969 118.667 578.635 111.733 581.969 106Z" fill="#FFF8FB"/>
<path d="M242.416 60.8C245.216 63.3333 249.416 64.6 255.016 64.6C260.749 64.6 265.349 63.0667 268.816 60C272.282 56.8 274.016 52.5333 274.016 47.2C274.016 42.8 272.482 39.4 269.416 37C266.349 34.6 262.349 33.4 257.416 33.4C251.949 33.4 247.349 35 243.616 38.2C240.016 41.2667 238.216 45.1333 238.216 49.8C238.216 54.4667 239.616 58.1333 242.416 60.8Z" fill="#FFF8FB"/>
</svg>
