<svg width="633" height="253" viewBox="0 0 633 253" fill="none" xmlns="http://www.w3.org/2000/svg">
<path d="M534.504 227.912C535.613 227.912 536.531 228.275 537.256 229C538.024 229.683 538.408 230.579 538.408 231.688C538.408 232.755 538.024 233.651 537.256 234.376C536.531 235.059 535.613 235.4 534.504 235.4H513.704C512.595 235.4 511.656 235.037 510.888 234.312C510.163 233.544 509.8 232.605 509.8 231.496V194.504C509.8 193.395 510.184 192.477 510.952 191.752C511.72 190.984 512.701 190.6 513.896 190.6C514.92 190.6 515.816 190.984 516.584 191.752C517.395 192.477 517.8 193.395 517.8 194.504V229L516.392 227.912H534.504Z" fill="url(#paint0_linear_9_101)"/>
<path d="M570.442 227.912C571.551 227.912 572.468 228.275 573.193 229C573.961 229.683 574.346 230.579 574.346 231.688C574.346 232.755 573.961 233.651 573.193 234.376C572.468 235.059 571.551 235.4 570.442 235.4H549.641C548.532 235.4 547.594 235.037 546.826 234.312C546.1 233.544 545.737 232.605 545.737 231.496V194.504C545.737 193.395 546.122 192.477 546.89 191.752C547.658 190.984 548.639 190.6 549.833 190.6C550.857 190.6 551.753 190.984 552.521 191.752C553.332 192.477 553.737 193.395 553.737 194.504V229L552.33 227.912H570.442Z" fill="url(#paint1_linear_9_101)"/>
<path d="M612.41 192.776C613.519 193.331 614.159 194.205 614.33 195.4C614.543 196.595 614.245 197.683 613.434 198.664C612.879 199.432 612.154 199.859 611.258 199.944C610.405 200.029 609.53 199.859 608.634 199.432C607.61 198.963 606.522 198.6 605.37 198.344C604.261 198.088 603.087 197.96 601.85 197.96C599.546 197.96 597.477 198.323 595.642 199.048C593.85 199.773 592.314 200.819 591.034 202.184C589.754 203.507 588.773 205.085 588.09 206.92C587.45 208.755 587.13 210.781 587.13 213C587.13 215.603 587.493 217.864 588.218 219.784C588.986 221.704 590.031 223.304 591.354 224.584C592.677 225.864 594.234 226.824 596.026 227.464C597.818 228.061 599.759 228.36 601.85 228.36C603.002 228.36 604.154 228.253 605.306 228.04C606.458 227.827 607.567 227.443 608.634 226.888C609.53 226.461 610.405 226.312 611.258 226.44C612.154 226.568 612.901 227.016 613.498 227.784C614.351 228.851 614.65 229.96 614.394 231.112C614.181 232.221 613.541 233.032 612.474 233.544C611.365 234.099 610.213 234.568 609.018 234.952C607.866 235.293 606.693 235.549 605.498 235.72C604.303 235.933 603.087 236.04 601.85 236.04C598.778 236.04 595.855 235.549 593.082 234.568C590.351 233.587 587.898 232.136 585.722 230.216C583.589 228.296 581.903 225.907 580.666 223.048C579.429 220.147 578.81 216.797 578.81 213C578.81 209.715 579.365 206.685 580.474 203.912C581.626 201.139 583.226 198.749 585.274 196.744C587.365 194.696 589.818 193.117 592.634 192.008C595.45 190.856 598.522 190.28 601.85 190.28C603.727 190.28 605.562 190.493 607.354 190.92C609.146 191.347 610.831 191.965 612.41 192.776Z" fill="url(#paint2_linear_9_101)"/>
<path d="M623.927 235.336C622.69 235.336 621.73 235.016 621.047 234.376C620.407 233.693 620.087 232.733 620.087 231.496V230.408C620.087 229.171 620.407 228.232 621.047 227.592C621.73 226.909 622.69 226.568 623.927 226.568H624.759C625.996 226.568 626.935 226.909 627.575 227.592C628.258 228.232 628.599 229.171 628.599 230.408V231.496C628.599 232.733 628.258 233.693 627.575 234.376C626.935 235.016 625.996 235.336 624.759 235.336H623.927Z" fill="url(#paint3_linear_9_101)"/>
<path d="M156 190.6C159.072 190.6 161.803 191.176 164.192 192.328C166.581 193.48 168.587 195.101 170.208 197.192C171.872 199.24 173.109 201.629 173.92 204.36C174.773 207.048 175.2 209.928 175.2 213C175.2 217.139 174.453 220.915 172.96 224.328C171.467 227.699 169.291 230.387 166.432 232.392C163.616 234.397 160.139 235.4 156 235.4H140.704C139.595 235.4 138.656 235.037 137.888 234.312C137.163 233.544 136.8 232.605 136.8 231.496V194.504C136.8 193.395 137.163 192.477 137.888 191.752C138.656 190.984 139.595 190.6 140.704 190.6H156ZM155.36 228.04C158.048 228.04 160.245 227.357 161.952 225.992C163.659 224.584 164.896 222.749 165.664 220.488C166.475 218.184 166.88 215.688 166.88 213C166.88 210.995 166.645 209.096 166.176 207.304C165.749 205.469 165.067 203.869 164.128 202.504C163.189 201.096 161.995 199.987 160.544 199.176C159.093 198.365 157.365 197.96 155.36 197.96H144.16L144.8 197.384V228.744L144.416 228.04H155.36Z" fill="url(#paint4_linear_9_101)"/>
<path d="M186.454 190.6H207.894C209.003 190.6 209.921 190.963 210.646 191.688C211.414 192.371 211.798 193.267 211.798 194.376C211.798 195.443 211.414 196.317 210.646 197C209.921 197.64 209.003 197.96 207.894 197.96H189.974L190.55 196.872V209.352L190.038 208.84H205.014C206.123 208.84 207.041 209.203 207.766 209.928C208.534 210.611 208.918 211.507 208.918 212.616C208.918 213.683 208.534 214.557 207.766 215.24C207.041 215.88 206.123 216.2 205.014 216.2H190.23L190.55 215.688V228.616L190.038 228.04H207.894C209.003 228.04 209.921 228.424 210.646 229.192C211.414 229.917 211.798 230.771 211.798 231.752C211.798 232.819 211.414 233.693 210.646 234.376C209.921 235.059 209.003 235.4 207.894 235.4H186.454C185.345 235.4 184.406 235.037 183.638 234.312C182.913 233.544 182.55 232.605 182.55 231.496V194.504C182.55 193.395 182.913 192.477 183.638 191.752C184.406 190.984 185.345 190.6 186.454 190.6Z" fill="url(#paint5_linear_9_101)"/>
<path d="M233.575 236.04C230.588 236.04 227.9 235.677 225.511 234.952C223.122 234.184 220.839 232.861 218.663 230.984C218.108 230.515 217.682 229.981 217.383 229.384C217.084 228.787 216.935 228.189 216.935 227.592C216.935 226.611 217.276 225.757 217.959 225.032C218.684 224.264 219.58 223.88 220.647 223.88C221.458 223.88 222.183 224.136 222.823 224.648C224.444 225.971 226.044 226.973 227.623 227.656C229.244 228.339 231.228 228.68 233.575 228.68C235.154 228.68 236.604 228.445 237.927 227.976C239.25 227.464 240.316 226.803 241.127 225.992C241.938 225.139 242.343 224.179 242.343 223.112C242.343 221.832 241.959 220.744 241.191 219.848C240.423 218.952 239.25 218.205 237.671 217.608C236.092 216.968 234.087 216.477 231.655 216.136C229.351 215.795 227.324 215.283 225.575 214.6C223.826 213.875 222.354 212.979 221.159 211.912C220.007 210.803 219.132 209.523 218.535 208.072C217.938 206.579 217.639 204.915 217.639 203.08C217.639 200.307 218.343 197.939 219.751 195.976C221.202 194.013 223.143 192.52 225.575 191.496C228.007 190.472 230.695 189.96 233.639 189.96C236.412 189.96 238.972 190.387 241.319 191.24C243.708 192.051 245.65 193.096 247.143 194.376C248.38 195.357 248.999 196.488 248.999 197.768C248.999 198.707 248.636 199.56 247.911 200.328C247.186 201.096 246.332 201.48 245.351 201.48C244.711 201.48 244.135 201.288 243.623 200.904C242.94 200.307 242.023 199.752 240.871 199.24C239.719 198.685 238.503 198.237 237.223 197.896C235.943 197.512 234.748 197.32 233.639 197.32C231.804 197.32 230.247 197.555 228.967 198.024C227.73 198.493 226.791 199.133 226.151 199.944C225.511 200.755 225.191 201.693 225.191 202.76C225.191 204.04 225.554 205.107 226.279 205.96C227.047 206.771 228.135 207.432 229.543 207.944C230.951 208.413 232.636 208.84 234.599 209.224C237.159 209.693 239.399 210.248 241.319 210.888C243.282 211.528 244.903 212.36 246.183 213.384C247.463 214.365 248.423 215.624 249.063 217.16C249.703 218.653 250.023 220.488 250.023 222.664C250.023 225.437 249.255 227.827 247.719 229.832C246.183 231.837 244.156 233.373 241.639 234.44C239.164 235.507 236.476 236.04 233.575 236.04Z" fill="url(#paint6_linear_9_101)"/>
<path d="M265.362 231.496C265.362 232.605 264.957 233.544 264.147 234.312C263.336 235.037 262.397 235.4 261.331 235.4C260.136 235.4 259.176 235.037 258.451 234.312C257.725 233.544 257.362 232.605 257.362 231.496V194.504C257.362 193.395 257.746 192.477 258.514 191.752C259.283 190.984 260.264 190.6 261.458 190.6C262.482 190.6 263.379 190.984 264.147 191.752C264.957 192.477 265.362 193.395 265.362 194.504V231.496Z" fill="url(#paint7_linear_9_101)"/>
<path d="M296.108 236.04C292.865 236.04 289.836 235.443 287.02 234.248C284.203 233.053 281.729 231.411 279.595 229.32C277.462 227.187 275.777 224.733 274.539 221.96C273.345 219.187 272.747 216.2 272.747 213C272.747 209.8 273.345 206.813 274.539 204.04C275.777 201.267 277.462 198.835 279.595 196.744C281.729 194.611 284.203 192.947 287.02 191.752C289.836 190.557 292.865 189.96 296.108 189.96C298.113 189.96 300.054 190.173 301.931 190.6C303.809 191.027 305.537 191.667 307.116 192.52C307.755 192.861 308.225 193.331 308.523 193.928C308.865 194.483 309.035 195.059 309.035 195.656C309.035 196.68 308.694 197.597 308.012 198.408C307.329 199.219 306.454 199.624 305.388 199.624C305.046 199.624 304.684 199.581 304.299 199.496C303.958 199.411 303.617 199.283 303.276 199.112C302.209 198.643 301.078 198.28 299.884 198.024C298.689 197.768 297.43 197.64 296.108 197.64C293.334 197.64 290.796 198.344 288.492 199.752C286.23 201.117 284.417 202.973 283.052 205.32C281.729 207.624 281.068 210.184 281.068 213C281.068 215.773 281.729 218.333 283.052 220.68C284.417 223.027 286.23 224.904 288.492 226.312C290.796 227.677 293.334 228.36 296.108 228.36C297.388 228.36 298.796 228.232 300.332 227.976C301.868 227.72 303.126 227.379 304.108 226.952L303.531 228.872V217.928L304.62 218.888H297.516C296.406 218.888 295.467 218.525 294.699 217.8C293.974 217.075 293.612 216.157 293.612 215.048C293.612 213.939 293.974 213.021 294.699 212.296C295.467 211.571 296.406 211.208 297.516 211.208H308.012C309.121 211.208 310.038 211.592 310.763 212.36C311.489 213.085 311.852 214.003 311.852 215.112V228.68C311.852 229.533 311.638 230.237 311.211 230.792C310.827 231.347 310.379 231.795 309.867 232.136C307.905 233.331 305.75 234.291 303.404 235.016C301.099 235.699 298.668 236.04 296.108 236.04Z" fill="url(#paint8_linear_9_101)"/>
<path d="M353.534 190.6C354.558 190.6 355.39 190.941 356.03 191.624C356.67 192.307 356.99 193.16 356.99 194.184V231.496C356.99 232.605 356.606 233.544 355.838 234.312C355.113 235.037 354.195 235.4 353.086 235.4C352.531 235.4 351.955 235.315 351.358 235.144C350.803 234.931 350.377 234.653 350.078 234.312L324.926 202.376L326.59 201.352V231.816C326.59 232.84 326.249 233.693 325.566 234.376C324.926 235.059 324.073 235.4 323.006 235.4C321.982 235.4 321.15 235.059 320.51 234.376C319.87 233.693 319.55 232.84 319.55 231.816V194.504C319.55 193.395 319.913 192.477 320.638 191.752C321.406 190.984 322.345 190.6 323.454 190.6C324.051 190.6 324.67 190.728 325.31 190.984C325.95 191.197 326.419 191.539 326.718 192.008L351.102 223.112L350.014 223.88V194.184C350.014 193.16 350.334 192.307 350.974 191.624C351.614 190.941 352.467 190.6 353.534 190.6Z" fill="url(#paint9_linear_9_101)"/>
<path d="M152 171.4C146.933 171.4 143.333 168.733 141.2 163.4C139.2 158.067 138.2 149.533 138.2 137.8C138.2 120.467 140.667 104 145.6 88.4C146.8 84.5334 148.733 81.7334 151.4 80C154.2 78.1334 158.067 77.2 163 77.2C165.667 77.2 167.533 77.5334 168.6 78.2C169.667 78.8667 170.2 80.1333 170.2 82C170.2 84.1333 169.2 88.9334 167.2 96.4C165.867 101.733 164.8 106.4 164 110.4C163.2 114.4 162.533 119.333 162 125.2C166.4 113.733 171.333 104.4 176.8 97.2C182.267 90 187.6 84.8667 192.8 81.8C198.133 78.7334 203 77.2 207.4 77.2C216.067 77.2 220.4 81.5334 220.4 90.2C220.4 91.9334 219.8 96.1334 218.6 102.8C217.533 108.133 217 111.467 217 112.8C217 117.467 218.667 119.8 222 119.8C225.733 119.8 230.533 116.867 236.4 111C238.133 109.267 239.933 108.4 241.8 108.4C243.533 108.4 244.867 109.2 245.8 110.8C246.867 112.267 247.4 114.267 247.4 116.8C247.4 121.733 246.067 125.6 243.4 128.4C239.667 132.267 235.267 135.6 230.2 138.4C225.267 141.067 220 142.4 214.4 142.4C207.333 142.4 201.933 140.6 198.2 137C194.6 133.4 192.8 128.533 192.8 122.4C192.8 120.4 193 118.4 193.4 116.4C193.667 113.733 193.8 111.933 193.8 111C193.8 108.867 193.067 107.8 191.6 107.8C189.6 107.8 186.933 110.067 183.6 114.6C180.4 119 177.2 124.867 174 132.2C170.8 139.533 168.2 147.267 166.2 155.4C164.733 161.667 163 165.933 161 168.2C159.133 170.333 156.133 171.4 152 171.4Z" fill="url(#paint10_linear_9_101)"/>
<path d="M255.016 64C249.416 64 245.216 62.7334 242.416 60.2C239.616 57.5334 238.216 53.8667 238.216 49.2C238.216 44.5334 240.016 40.6667 243.616 37.6C247.349 34.4 251.949 32.8 257.416 32.8C262.349 32.8 266.349 34 269.416 36.4C272.482 38.8 274.016 42.2 274.016 46.6C274.016 51.9333 272.282 56.2 268.816 59.4C265.349 62.4667 260.749 64 255.016 64ZM253.416 171.4C244.749 171.4 238.416 168.333 234.416 162.2C230.549 156.067 228.616 147.933 228.616 137.8C228.616 131.8 229.349 124.133 230.816 114.8C232.416 105.333 234.416 96.5334 236.816 88.4C238.016 84.1333 239.616 81.2 241.616 79.6C243.616 78 246.816 77.2 251.216 77.2C258.016 77.2 261.416 79.4667 261.416 84C261.416 87.3334 260.149 95.0667 257.616 107.2C254.416 121.867 252.816 131.8 252.816 137C252.816 141 253.349 144.067 254.416 146.2C255.482 148.333 257.282 149.4 259.816 149.4C262.216 149.4 265.216 147.733 268.816 144.4C272.416 141.067 277.216 135.8 283.216 128.6C284.816 126.733 286.616 125.8 288.616 125.8C290.349 125.8 291.682 126.6 292.616 128.2C293.682 129.8 294.216 132 294.216 134.8C294.216 140.133 292.949 144.267 290.416 147.2C277.216 163.333 264.882 171.4 253.416 171.4Z" fill="url(#paint11_linear_9_101)"/>
<path d="M315.234 175.8C308.301 175.8 302.968 174.2 299.234 171C295.634 167.8 293.834 164.2 293.834 160.2C293.834 156.733 295.101 153.733 297.634 151.2C300.168 148.667 303.901 147.4 308.834 147.4C310.568 147.4 312.568 147.6 314.834 148C317.234 148.267 319.034 148.467 320.234 148.6C320.101 145.133 319.301 141.867 317.834 138.8C316.501 135.733 314.768 132.8 312.634 130C310.501 127.067 308.501 124.533 306.634 122.4C302.501 130.267 298.368 136.8 294.234 142C290.234 147.2 285.834 152.133 281.034 156.8C278.634 159.2 276.101 160.4 273.434 160.4C271.301 160.4 269.568 159.667 268.234 158.2C266.901 156.6 266.234 154.667 266.234 152.4C266.234 149.733 267.168 147.267 269.034 145L271.634 141.8C278.968 132.733 284.501 125.267 288.234 119.4C290.501 115.533 293.168 110.4 296.234 104C299.301 97.4667 302.301 90.7334 305.234 83.8C307.768 77.9333 313.034 75 321.034 75C324.768 75 327.368 75.3334 328.834 76C330.301 76.6667 331.034 77.7334 331.034 79.2C331.034 80 330.768 81.2667 330.234 83C329.701 84.7334 328.968 86.4667 328.034 88.2C325.634 93 324.434 97.0667 324.434 100.4C324.434 102.4 325.101 104.6 326.434 107C327.901 109.4 330.101 112.4 333.034 116C337.301 121.6 340.501 126.4 342.634 130.4C344.901 134.267 346.034 138.533 346.034 143.2C346.034 144.533 345.901 146.4 345.634 148.8C352.168 146.267 359.834 139.533 368.634 128.6C370.234 126.733 372.034 125.8 374.034 125.8C375.768 125.8 377.101 126.6 378.034 128.2C379.101 129.8 379.634 132 379.634 134.8C379.634 139.867 378.368 144 375.834 147.2C369.168 155.467 362.768 161.133 356.634 164.2C350.634 167.133 343.168 168.733 334.234 169C328.901 173.533 322.568 175.8 315.234 175.8Z" fill="url(#paint12_linear_9_101)"/>
<path d="M475.586 132C478.653 132 480.186 134.067 480.186 138.2C480.186 143.4 478.986 147.467 476.586 150.4C474.319 153.333 471.186 154.8 467.186 154.8L459.786 154.6C458.453 154.467 456.519 154.4 453.986 154.4C454.519 162 454.786 169.6 454.786 177.2C454.786 197.333 452.119 214.867 446.786 229.8C441.586 244.733 433.386 252.2 422.186 252.2C414.586 252.2 408.786 247.8 404.786 239C400.919 230.333 398.986 219.733 398.986 207.2C398.986 191.6 400.719 176.2 404.186 161C399.653 167.933 393.719 171.4 386.386 171.4C379.053 171.4 372.919 168.333 367.986 162.2C363.186 156.067 360.786 148.133 360.786 138.4C360.786 127.867 363.253 117.867 368.186 108.4C373.253 98.9334 379.919 91.3334 388.186 85.6C396.586 79.7334 405.519 76.8 414.986 76.8C418.186 76.8 420.653 77.8667 422.386 80C423.586 75.7334 425.386 72.8667 427.786 71.4C430.186 69.9333 433.519 69.2 437.786 69.2C442.319 69.2 445.319 69.8667 446.786 71.2C448.386 72.5334 449.119 74.4667 448.986 77C448.986 78.6 448.119 82.3334 446.386 88.2C444.786 93.9333 443.719 97.7334 443.186 99.6C441.053 107.067 438.719 115.333 436.186 124.4C433.786 133.467 431.853 141.733 430.386 149.2C426.119 170.533 423.986 189.4 423.986 205.8C423.986 211.933 424.453 217.133 425.386 221.4C426.453 225.8 427.786 228 429.386 228C430.719 228 432.119 225.733 433.586 221.2C435.186 216.667 436.519 210.6 437.586 203C438.653 195.4 439.186 187.333 439.186 178.8C439.186 168.667 438.719 159.667 437.786 151.8C437.653 151.133 437.586 150.067 437.586 148.6C437.586 144.2 438.653 140.533 440.786 137.6C443.053 134.667 446.186 133.2 450.186 133.2C450.719 133.2 455.786 133 465.386 132.6C469.386 132.2 472.786 132 475.586 132ZM394.386 151.2C397.453 151.2 400.386 149.333 403.186 145.6C405.986 141.733 407.986 137.133 409.186 131.8L417.786 95.4C411.919 95.5334 406.519 97.6 401.586 101.6C396.786 105.6 392.919 110.933 389.986 117.6C387.186 124.133 385.786 131.067 385.786 138.4C385.786 142.533 386.519 145.733 387.986 148C389.586 150.133 391.719 151.2 394.386 151.2Z" fill="url(#paint13_linear_9_101)"/>
<path d="M483.786 171.4C477.786 171.4 472.853 168.667 468.986 163.2C465.253 157.6 463.386 150.667 463.386 142.4C463.386 132.4 464.053 123.267 465.386 115C466.719 106.6 468.919 97.7334 471.986 88.4C473.319 84.4 475.186 81.5334 477.586 79.8C479.986 78.0667 483.786 77.2 488.986 77.2C491.919 77.2 493.919 77.6667 494.986 78.6C496.186 79.5334 496.786 80.9333 496.786 82.8C496.786 83.8667 496.053 87.4667 494.586 93.6C493.253 98.5334 492.186 103 491.386 107C488.719 121 487.386 130.333 487.386 135C487.386 137.8 487.719 139.8 488.386 141C489.053 142.067 490.119 142.6 491.586 142.6C493.586 142.6 496.053 140.6 498.986 136.6C502.053 132.6 505.253 126.533 508.586 118.4C512.053 110.267 515.386 100.267 518.586 88.4C519.653 84.4 521.253 81.5334 523.386 79.8C525.653 78.0667 528.986 77.2 533.386 77.2C536.453 77.2 538.586 77.6 539.786 78.4C540.986 79.0667 541.586 80.4 541.586 82.4C541.586 85.7334 539.919 94.8667 536.586 109.8C532.853 126.867 530.986 137.4 530.986 141.4C530.986 143.933 531.519 145.933 532.586 147.4C533.653 148.733 535.053 149.4 536.786 149.4C539.453 149.4 542.586 147.8 546.186 144.6C549.919 141.267 554.853 135.933 560.986 128.6C562.586 126.733 564.386 125.8 566.386 125.8C568.119 125.8 569.453 126.6 570.386 128.2C571.453 129.8 571.986 132 571.986 134.8C571.986 140.133 570.719 144.267 568.186 147.2C562.453 154.267 556.253 160.067 549.586 164.6C543.053 169.133 535.586 171.4 527.186 171.4C520.786 171.4 516.053 168.933 512.986 164C510.053 159.067 508.586 152.133 508.586 143.2C506.319 152.267 502.919 159.267 498.386 164.2C493.853 169 488.986 171.4 483.786 171.4Z" fill="url(#paint14_linear_9_101)"/>
<path d="M627.369 131.8C629.102 131.8 630.435 132.6 631.369 134.2C632.435 135.8 632.969 138 632.969 140.8C632.969 145.6 631.835 149.733 629.569 153.2C625.835 158.933 620.902 163.4 614.769 166.6C608.769 169.8 601.569 171.4 593.169 171.4C580.369 171.4 570.435 167.6 563.369 160C556.302 152.267 552.769 141.867 552.769 128.8C552.769 119.6 554.702 111.067 558.569 103.2C562.435 95.2 567.769 88.8667 574.569 84.2C581.502 79.5334 589.302 77.2 597.969 77.2C605.702 77.2 611.902 79.5334 616.569 84.2C621.235 88.7334 623.569 94.9333 623.569 102.8C623.569 112 620.235 119.933 613.569 126.6C607.035 133.133 595.835 138.333 579.969 142.2C583.169 148.333 588.569 151.4 596.169 151.4C601.635 151.4 606.102 150.133 609.569 147.6C613.169 145.067 617.302 140.8 621.969 134.8C623.569 132.8 625.369 131.8 627.369 131.8ZM594.569 96.8C589.635 96.8 585.435 99.6667 581.969 105.4C578.635 111.133 576.969 118.067 576.969 126.2V126.6C584.835 124.733 591.035 121.933 595.569 118.2C600.102 114.467 602.369 110.133 602.369 105.2C602.369 102.667 601.635 100.667 600.169 99.2C598.835 97.6 596.969 96.8 594.569 96.8Z" fill="url(#paint15_linear_9_101)"/>
<path d="M622.9 6.4C626.633 6.93334 629.167 8.06667 630.5 9.80001C631.967 11.5333 632.7 13.8 632.7 16.6C632.7 25.8 627.767 30.0667 617.9 29.4L610.9 28.8C603.033 28.1333 595.167 27.6 587.3 27.2C579.567 26.8 130.133 23.8 121.6 23.8H112.6C111 43.5333 109.333 61.5333 107.6 77.8L156 77.2C160.933 77.2 166.8 76.6667 168.4 78.4C170.133 80.1333 169.7 80.4667 169.7 83.4C169.7 87.9333 167.067 94.9333 164.4 97.6C161.733 100.133 157.933 101.4 153 101.4H106.8C106.8 101.4 100.8 162.9 99.6 190C98.4 217.1 90.8 227.667 81.6 237C72.5333 246.333 60 251 44 251C34.9333 251 26.6 249.067 19 245.2C11.4 241.2 5.8 236.4 2.2 230.8C0.733333 228.533 0 225.8 0 222.6C0 219.4 0.733333 216.6 2.2 214.2C3.8 211.8 5.73333 210.6 8 210.6C9.6 210.6 11.1333 211.133 12.6 212.2C14.2 213.267 16.2 215.333 18.6 218.4C25 226.8 32.9333 231 42.4 231C50 231 56.3333 227.933 61.4 221.8C66.6 215.533 69.475 209.9 71.4 192.4C73.325 174.9 78.6 101.4 78.6 101.4H67C63.9333 101.4 61.2667 100.533 59 98.8C56.8667 97.0667 55.8 94.6 55.8 91.4C55.8 87.2667 56.8667 84.1333 59 82C61.1333 79.7333 64.2667 78.6 68.4 78.6C72.1333 78.6 75.8 78.5333 79.4 78.4C81 63.7333 82.7333 45.9333 84.6 25C70.2 26.3333 60.0667 28.6667 54.2 32C48.3333 35.3333 45.4 40.2667 45.4 46.8C45.4 51.3333 46.7333 55.6667 49.4 59.8C50.2 61 50.6 62.2 50.6 63.4C50.6 65.8 49.2667 67.9333 46.6 69.8C43.9333 71.5333 40.9333 72.4 37.6 72.4C34 72.4 30.9333 71.3333 28.4 69.2C26.8 67.8667 25.2667 65.1333 23.8 61C22.3333 56.8667 21.6 52.2667 21.6 47.2C21.6 30.6667 30.0667 18.6667 47 11.2C64.0667 3.73334 88.9333 0 121.6 0C609.9 6.4 605.567 4 622.9 6.4Z" fill="url(#paint16_linear_9_101)"/>
<defs>
<linearGradient id="paint0_linear_9_101" x1="-1.02329e-06" y1="126" x2="633" y2="126" gradientUnits="userSpaceOnUse">
<stop stop-color="#F72585"/>
<stop offset="0.510417" stop-color="#4361EE"/>
<stop offset="1" stop-color="#4CC9F0"/>
</linearGradient>
<linearGradient id="paint1_linear_9_101" x1="-1.02329e-06" y1="126" x2="633" y2="126" gradientUnits="userSpaceOnUse">
<stop stop-color="#F72585"/>
<stop offset="0.510417" stop-color="#4361EE"/>
<stop offset="1" stop-color="#4CC9F0"/>
</linearGradient>
<linearGradient id="paint2_linear_9_101" x1="-1.02329e-06" y1="126" x2="633" y2="126" gradientUnits="userSpaceOnUse">
<stop stop-color="#F72585"/>
<stop offset="0.510417" stop-color="#4361EE"/>
<stop offset="1" stop-color="#4CC9F0"/>
</linearGradient>
<linearGradient id="paint3_linear_9_101" x1="-1.02329e-06" y1="126" x2="633" y2="126" gradientUnits="userSpaceOnUse">
<stop stop-color="#F72585"/>
<stop offset="0.510417" stop-color="#4361EE"/>
<stop offset="1" stop-color="#4CC9F0"/>
</linearGradient>
<linearGradient id="paint4_linear_9_101" x1="-1.02329e-06" y1="126" x2="633" y2="126" gradientUnits="userSpaceOnUse">
<stop stop-color="#F72585"/>
<stop offset="0.510417" stop-color="#4361EE"/>
<stop offset="1" stop-color="#4CC9F0"/>
</linearGradient>
<linearGradient id="paint5_linear_9_101" x1="-1.02329e-06" y1="126" x2="633" y2="126" gradientUnits="userSpaceOnUse">
<stop stop-color="#F72585"/>
<stop offset="0.510417" stop-color="#4361EE"/>
<stop offset="1" stop-color="#4CC9F0"/>
</linearGradient>
<linearGradient id="paint6_linear_9_101" x1="-1.02329e-06" y1="126" x2="633" y2="126" gradientUnits="userSpaceOnUse">
<stop stop-color="#F72585"/>
<stop offset="0.510417" stop-color="#4361EE"/>
<stop offset="1" stop-color="#4CC9F0"/>
</linearGradient>
<linearGradient id="paint7_linear_9_101" x1="-1.02329e-06" y1="126" x2="633" y2="126" gradientUnits="userSpaceOnUse">
<stop stop-color="#F72585"/>
<stop offset="0.510417" stop-color="#4361EE"/>
<stop offset="1" stop-color="#4CC9F0"/>
</linearGradient>
<linearGradient id="paint8_linear_9_101" x1="-1.02329e-06" y1="126" x2="633" y2="126" gradientUnits="userSpaceOnUse">
<stop stop-color="#F72585"/>
<stop offset="0.510417" stop-color="#4361EE"/>
<stop offset="1" stop-color="#4CC9F0"/>
</linearGradient>
<linearGradient id="paint9_linear_9_101" x1="-1.02329e-06" y1="126" x2="633" y2="126" gradientUnits="userSpaceOnUse">
<stop stop-color="#F72585"/>
<stop offset="0.510417" stop-color="#4361EE"/>
<stop offset="1" stop-color="#4CC9F0"/>
</linearGradient>
<linearGradient id="paint10_linear_9_101" x1="-1.02329e-06" y1="126" x2="633" y2="126" gradientUnits="userSpaceOnUse">
<stop stop-color="#F72585"/>
<stop offset="0.510417" stop-color="#4361EE"/>
<stop offset="1" stop-color="#4CC9F0"/>
</linearGradient>
<linearGradient id="paint11_linear_9_101" x1="-1.02329e-06" y1="126" x2="633" y2="126" gradientUnits="userSpaceOnUse">
<stop stop-color="#F72585"/>
<stop offset="0.510417" stop-color="#4361EE"/>
<stop offset="1" stop-color="#4CC9F0"/>
</linearGradient>
<linearGradient id="paint12_linear_9_101" x1="-1.02329e-06" y1="126" x2="633" y2="126" gradientUnits="userSpaceOnUse">
<stop stop-color="#F72585"/>
<stop offset="0.510417" stop-color="#4361EE"/>
<stop offset="1" stop-color="#4CC9F0"/>
</linearGradient>
<linearGradient id="paint13_linear_9_101" x1="-1.02329e-06" y1="126" x2="633" y2="126" gradientUnits="userSpaceOnUse">
<stop stop-color="#F72585"/>
<stop offset="0.510417" stop-color="#4361EE"/>
<stop offset="1" stop-color="#4CC9F0"/>
</linearGradient>
<linearGradient id="paint14_linear_9_101" x1="-1.02329e-06" y1="126" x2="633" y2="126" gradientUnits="userSpaceOnUse">
<stop stop-color="#F72585"/>
<stop offset="0.510417" stop-color="#4361EE"/>
<stop offset="1" stop-color="#4CC9F0"/>
</linearGradient>
<linearGradient id="paint15_linear_9_101" x1="-1.02329e-06" y1="126" x2="633" y2="126" gradientUnits="userSpaceOnUse">
<stop stop-color="#F72585"/>
<stop offset="0.510417" stop-color="#4361EE"/>
<stop offset="1" stop-color="#4CC9F0"/>
</linearGradient>
<linearGradient id="paint16_linear_9_101" x1="-1.02329e-06" y1="126" x2="633" y2="126" gradientUnits="userSpaceOnUse">
<stop stop-color="#F72585"/>
<stop offset="0.510417" stop-color="#4361EE"/>
<stop offset="1" stop-color="#4CC9F0"/>
</linearGradient>
</defs>
</svg>
